<?xml version="1.0" standalone="no"?>
<!DOCTYPE svg PUBLIC "-//W3C//DTD SVG 20010904//EN"
 "http://www.w3.org/TR/2001/REC-SVG-20010904/DTD/svg10.dtd">
<svg version="1.0" xmlns="http://www.w3.org/2000/svg"
 width="1256.000000pt" height="410.000000pt" viewBox="0 0 1256.000000 410.000000"
 preserveAspectRatio="xMidYMid meet">

<g transform="translate(0.000000,410.000000) scale(0.100000,-0.100000)"
fill="#000000" stroke="none">
<path d="M6991 3372 c-52 -26 -76 -65 -74 -117 3 -76 55 -125 133 -125 150 0
190 188 53 246 -43 19 -71 18 -112 -4z"/>
<path d="M1459 3310 c-114 -11 -176 -28 -262 -73 -110 -56 -169 -112 -214
-205 -37 -74 -38 -79 -37 -181 1 -143 24 -203 109 -287 94 -93 208 -143 474
-210 203 -50 217 -55 270 -97 66 -52 91 -95 91 -159 0 -62 -11 -89 -60 -142
-69 -75 -114 -91 -260 -91 -120 0 -127 1 -179 30 -65 36 -103 85 -151 197 -48
111 -87 143 -175 143 -73 0 -108 -20 -138 -76 -53 -99 39 -315 179 -421 51
-39 154 -84 258 -113 74 -21 252 -30 331 -17 152 25 333 100 391 164 124 136
148 194 148 363 -1 145 -12 181 -88 275 -41 51 -70 75 -123 103 -110 58 -240
103 -418 146 -181 44 -246 72 -293 125 -38 44 -46 67 -37 122 8 59 41 95 117
129 54 25 75 29 153 29 160 0 204 -24 285 -159 63 -104 98 -140 143 -148 82
-13 170 41 186 116 18 77 -35 214 -106 278 -65 58 -174 118 -253 138 -90 22
-237 31 -341 21z"/>
<path d="M3103 3311 c-72 -18 -123 -83 -123 -156 0 -34 48 -246 131 -575 21
-85 68 -276 104 -425 35 -148 74 -301 86 -340 42 -142 99 -201 203 -212 47 -5
64 -2 111 22 75 36 97 73 144 238 22 75 42 140 44 144 3 4 30 107 61 228 31
121 75 279 96 350 22 72 44 154 50 182 7 29 15 55 19 57 4 3 20 -48 35 -112
16 -64 37 -142 48 -172 10 -30 48 -170 84 -310 81 -318 140 -506 170 -547 74
-99 228 -110 314 -22 49 50 81 150 179 559 39 162 84 345 100 405 54 207 115
490 114 537 -1 107 -95 174 -206 149 -89 -21 -112 -70 -177 -376 -28 -132 -68
-312 -90 -400 -21 -88 -46 -198 -56 -245 -22 -115 -29 -124 -44 -59 -6 30 -29
113 -50 184 -21 72 -62 220 -90 330 -73 284 -125 445 -161 495 -37 51 -85 72
-164 73 -110 1 -159 -30 -209 -129 -27 -54 -54 -146 -142 -479 -114 -430 -142
-530 -147 -515 -3 8 -18 74 -33 145 -15 72 -30 137 -35 145 -4 9 -28 114 -54
235 -83 394 -96 446 -123 503 -15 31 -38 64 -52 73 -30 21 -94 30 -137 20z"/>
<path d="M7773 3306 c-60 -19 -98 -50 -122 -99 -21 -43 -21 -54 -21 -761 0
-803 -3 -764 71 -813 79 -52 177 -34 229 44 l25 37 5 501 5 502 38 -51 c21
-28 68 -98 105 -157 87 -137 137 -214 189 -291 23 -35 74 -115 115 -178 40
-63 91 -140 113 -171 22 -32 56 -83 75 -114 24 -39 56 -72 100 -104 62 -44 67
-46 136 -46 66 0 76 3 111 31 21 17 47 46 58 65 20 33 20 52 20 770 l0 735
-25 36 c-36 53 -73 71 -143 71 -70 -1 -102 -20 -132 -79 -19 -37 -20 -64 -25
-542 l-5 -504 -21 24 c-11 13 -53 75 -93 138 -40 63 -90 140 -110 170 -54 79
-126 188 -201 304 -36 56 -86 131 -111 166 -25 36 -61 91 -80 123 -50 86 -123
172 -156 185 -48 19 -106 22 -150 8z"/>
<path d="M10662 3309 c-203 -19 -384 -101 -514 -232 -63 -62 -87 -96 -122
-170 -78 -162 -106 -278 -106 -447 0 -170 28 -286 108 -450 63 -127 176 -241
298 -301 229 -113 474 -136 724 -70 192 51 298 97 388 168 76 61 77 67 77 333
0 215 -2 238 -20 274 -11 22 -31 48 -45 58 -40 28 -170 40 -398 36 -219 -4
-242 -8 -286 -57 -29 -32 -33 -110 -7 -142 41 -53 81 -63 264 -67 l167 -4 0
-128 0 -127 -77 -36 c-111 -51 -174 -67 -289 -74 -329 -19 -521 175 -541 548
-12 216 55 414 174 519 128 113 344 141 507 67 44 -20 66 -41 122 -113 38 -49
85 -105 104 -125 61 -64 146 -65 218 -4 78 68 78 160 0 272 -64 91 -97 121
-189 173 -107 60 -191 86 -320 100 -110 11 -116 11 -237 -1z"/>
<path d="M6250 2624 c-67 -24 -103 -72 -102 -135 3 -170 271 -169 276 1 1 42
-21 79 -65 112 -26 20 -84 31 -109 22z"/>
<path d="M5454 1841 c-55 -25 -74 -54 -74 -114 0 -44 4 -54 38 -88 44 -43 76
-54 129 -44 46 8 100 62 108 108 11 55 -20 116 -69 138 -52 23 -80 23 -132 0z"/>
<path d="M956 849 c-18 -14 -26 -30 -26 -53 0 -42 16 -62 75 -94 59 -32 71
-65 31 -83 -32 -15 -71 8 -91 54 l-14 32 -1 -51 c0 -47 2 -52 23 -52 12 -1 42
-1 66 -2 50 -1 77 17 86 61 9 41 -14 73 -72 101 -59 29 -74 51 -50 75 24 25
67 7 89 -37 l18 -35 0 55 c0 32 -4 50 -8 42 -7 -10 -15 -10 -36 -2 -40 15 -60
12 -90 -11z"/>
<path d="M1388 859 c-10 -5 -20 -25 -23 -43 -4 -21 -15 -38 -28 -44 l-22 -11
23 0 c20 -1 22 -5 22 -65 0 -56 -3 -67 -22 -80 -21 -15 -20 -16 37 -16 46 1
56 3 43 11 -15 8 -18 24 -18 79 l0 70 35 0 34 0 3 -77 c3 -73 5 -78 26 -81 22
-3 52 13 52 28 0 3 -10 6 -22 6 -21 -1 -23 4 -26 62 l-3 62 35 0 c33 0 36 -3
55 -55 11 -30 23 -66 27 -80 9 -36 20 -31 43 20 11 25 24 45 30 45 5 0 16 -19
23 -42 8 -23 19 -43 24 -45 6 -2 20 28 32 67 13 38 29 76 37 84 16 16 10 26
-17 26 -14 0 -18 -5 -14 -17 3 -10 -3 -36 -12 -58 l-18 -39 -18 43 c-13 33
-14 46 -5 51 17 11 -27 23 -57 16 -24 -6 -24 -6 -4 -26 19 -19 19 -21 3 -55
l-17 -36 -14 28 c-8 15 -16 41 -17 57 -2 29 -6 31 -41 32 -74 2 -74 2 -74 37
l0 32 -19 -31 c-24 -40 -32 -44 -59 -37 -17 4 -22 13 -22 39 0 42 11 49 40 24
27 -24 52 -11 30 15 -14 17 -56 19 -82 4z"/>
<path d="M2456 854 c-9 -8 -16 -24 -16 -34 0 -11 -10 -28 -22 -40 -18 -17 -19
-20 -5 -20 26 0 25 -134 0 -149 -14 -8 -3 -10 42 -10 46 0 55 2 38 9 -21 8
-23 16 -23 80 0 69 0 70 28 71 l27 1 -27 11 c-23 9 -28 17 -28 44 0 28 4 33
24 33 13 0 29 -7 36 -15 9 -11 16 -13 23 -6 17 17 -12 41 -49 41 -18 0 -40 -7
-48 -16z"/>
<path d="M3970 859 c-11 -8 -12 -12 -2 -16 8 -3 12 -35 12 -112 0 -70 4 -111
12 -119 15 -15 73 -16 100 -1 27 14 51 74 43 109 -10 47 -74 77 -103 48 -9 -9
-12 1 -12 45 0 48 -3 57 -17 57 -10 0 -25 -5 -33 -11z m110 -124 c33 -40 -1
-136 -41 -114 -15 8 -19 21 -19 63 0 29 3 56 7 59 11 12 40 8 53 -8z"/>
<path d="M4173 863 c-7 -2 -13 -9 -13 -14 0 -6 4 -8 9 -4 15 9 24 -56 19 -145
-2 -58 -7 -84 -18 -90 -11 -7 -2 -10 30 -10 34 0 41 3 32 12 -8 8 -12 53 -12
135 0 111 -2 123 -17 122 -10 0 -24 -3 -30 -6z"/>
<path d="M4620 850 c-11 -11 -20 -31 -20 -44 0 -16 -7 -26 -22 -30 l-23 -7 23
-9 c19 -8 22 -17 22 -65 0 -42 -5 -60 -20 -75 l-20 -20 58 0 c43 1 53 3 40 11
-15 8 -18 24 -18 79 0 74 7 83 51 60 27 -15 28 -124 2 -139 -14 -8 -5 -10 37
-11 52 0 53 1 32 16 -18 12 -22 25 -22 63 0 54 14 73 48 64 16 -4 22 -1 22 11
0 22 -24 30 -48 17 -14 -8 -21 -8 -24 0 -2 6 -12 7 -27 1 -38 -14 -71 7 -71
45 0 41 12 48 40 23 27 -24 52 -11 30 15 -18 21 -66 19 -90 -5z"/>
<path d="M6904 859 c-7 -12 15 -31 28 -23 4 3 8 12 8 20 0 17 -26 19 -36 3z"/>
<path d="M7710 850 c-11 -11 -20 -31 -20 -44 0 -16 -7 -26 -22 -30 l-23 -7 23
-9 c19 -8 22 -17 22 -65 0 -42 -5 -60 -20 -75 l-20 -20 58 0 c43 1 53 3 40 11
-14 8 -18 24 -18 79 0 63 2 69 23 73 l22 4 -22 8 c-31 10 -34 75 -4 75 10 0
24 -7 31 -15 9 -11 16 -13 23 -6 16 16 -11 41 -44 41 -16 0 -38 -9 -49 -20z"/>
<path d="M8851 861 c-11 -7 -11 -9 0 -13 21 -7 20 -225 -1 -238 -11 -7 -2 -10
30 -10 34 0 41 3 32 12 -8 8 -12 53 -12 135 0 111 -2 123 -17 123 -10 0 -24
-4 -32 -9z"/>
<path d="M9356 861 c-7 -11 18 -33 27 -24 4 3 7 12 7 20 0 15 -26 18 -34 4z"/>
<path d="M9786 861 c-18 -7 -18 -8 -3 -14 15 -5 17 -23 17 -116 0 -94 -3 -111
-17 -120 -14 -8 -7 -10 32 -11 38 0 46 3 37 12 -8 8 -12 53 -12 135 0 132 -1
135 -54 114z"/>
<path d="M10061 852 c-95 -48 -105 -171 -19 -235 27 -20 96 -26 156 -12 29 6
32 10 32 45 0 27 6 42 18 49 13 8 1 10 -48 10 -49 0 -61 -2 -47 -10 11 -6 17
-22 17 -44 0 -29 -4 -36 -26 -41 -59 -15 -103 60 -90 150 16 105 104 116 163
20 10 -16 12 -11 12 35 1 44 -1 51 -13 42 -10 -8 -21 -8 -40 -1 -40 15 -76 12
-115 -8z"/>
<path d="M2936 852 c11 -7 85 -166 101 -216 5 -17 14 -31 19 -33 5 -2 22 31
38 72 16 41 32 72 36 70 5 -3 21 -37 36 -75 15 -39 30 -70 33 -70 3 0 24 51
46 112 22 62 48 121 58 130 16 17 15 18 -25 18 -35 0 -39 -2 -26 -12 15 -12
15 -18 -4 -75 -11 -35 -24 -60 -29 -58 -4 3 -15 29 -25 58 -9 28 -19 57 -21
64 -3 6 4 13 14 16 10 3 -13 5 -52 6 -51 0 -65 -2 -53 -10 24 -13 32 -70 17
-113 -7 -19 -16 -33 -20 -30 -4 2 -17 34 -29 70 -19 55 -20 68 -9 75 9 5 -10
9 -51 9 -36 0 -60 -4 -54 -8z"/>
<path d="M5268 850 c21 -9 22 -15 22 -114 0 -97 -2 -106 -22 -120 -21 -15 -19
-16 47 -16 53 1 66 3 53 11 -15 9 -18 26 -18 119 0 93 3 110 18 119 13 8 -1
10 -53 10 -52 0 -64 -3 -47 -9z"/>
<path d="M7888 844 c20 -14 22 -23 22 -114 0 -91 -2 -100 -22 -114 -22 -15
-21 -16 27 -16 39 1 46 3 33 11 -15 8 -18 25 -18 95 l0 85 50 -58 c28 -32 65
-78 83 -101 l32 -44 5 126 c4 98 8 129 20 136 11 7 2 10 -29 10 -40 0 -43 -1
-26 -14 13 -9 20 -30 23 -70 2 -31 1 -56 -2 -56 -9 0 -48 43 -88 98 -30 40
-34 42 -82 42 -49 0 -50 -1 -28 -16z"/>
<path d="M5642 833 c-1 -6 -14 -25 -28 -42 -20 -24 -22 -31 -10 -31 13 0 16
-13 16 -75 0 -61 3 -77 16 -82 18 -7 45 6 51 24 3 7 -4 9 -16 6 -20 -5 -21 -1
-21 60 0 60 2 66 23 70 l22 4 -22 8 c-15 5 -23 17 -26 39 -2 17 -5 26 -5 19z"/>
<path d="M6532 833 c-1 -6 -14 -25 -28 -42 -19 -24 -22 -31 -10 -31 12 0 16
-15 18 -77 3 -73 5 -78 26 -81 22 -3 52 13 52 28 0 3 -10 6 -22 6 -21 -1 -23
4 -26 62 -3 62 -3 62 25 63 l28 1 -27 11 c-19 8 -28 19 -31 41 -2 17 -5 26 -5
19z"/>
<path d="M6812 833 c-1 -6 -14 -25 -28 -42 -20 -24 -22 -31 -10 -31 13 0 16
-13 16 -75 0 -61 3 -77 16 -82 18 -7 45 6 51 24 3 7 -4 9 -16 6 -20 -5 -21 -1
-21 60 0 60 2 66 23 70 l22 4 -22 8 c-15 5 -23 17 -26 39 -2 17 -5 26 -5 19z"/>
<path d="M10626 815 c-11 -17 -27 -35 -35 -42 -14 -11 -14 -12 1 -13 14 0 18
-12 20 -71 2 -55 7 -74 21 -83 12 -8 22 -8 34 0 25 16 28 33 4 27 -20 -5 -21
-1 -21 61 l0 66 29 0 c34 0 41 -14 41 -80 0 -27 3 -55 6 -64 7 -19 64 -22 82
-4 7 7 12 8 12 2 0 -7 32 -12 82 -13 69 -1 79 1 64 12 -22 16 -32 87 -17 116
9 16 18 20 36 15 19 -5 25 -2 25 10 0 21 -28 32 -42 18 -8 -8 -15 -8 -24 -2
-8 7 -21 7 -40 0 -26 -10 -27 -13 -11 -21 13 -8 17 -23 17 -69 0 -67 -12 -82
-41 -49 -14 17 -19 37 -19 86 0 56 -2 63 -19 63 -11 0 -23 -4 -26 -10 -3 -5
-1 -10 4 -10 7 0 11 -24 11 -60 0 -48 -4 -61 -19 -69 -33 -18 -50 7 -53 79 -3
65 -3 65 -33 66 -63 3 -64 3 -67 36 l-3 32 -19 -29z"/>
<path d="M1173 768 c-45 -22 -55 -107 -16 -150 11 -12 30 -18 60 -18 38 0 46
4 63 33 53 86 -19 178 -107 135z m77 -34 c19 -49 6 -124 -21 -124 -5 0 -21 11
-34 25 -27 27 -35 91 -13 113 21 21 58 14 68 -14z"/>
<path d="M1860 762 c-13 -11 -20 -24 -16 -30 11 -19 33 -14 39 9 7 25 40 22
45 -3 2 -12 -8 -22 -36 -33 -46 -19 -68 -55 -52 -86 11 -20 64 -27 75 -9 4 6
13 5 25 -2 14 -9 22 -9 34 1 19 16 21 32 4 29 -9 -2 -14 15 -16 57 -3 64 -17
85 -58 85 -12 0 -32 -8 -44 -18z m70 -92 c0 -28 -29 -57 -44 -43 -13 13 -5 52
12 62 27 16 32 13 32 -19z"/>
<path d="M2015 766 c-28 -12 -29 -13 -7 -18 19 -5 22 -13 22 -61 0 -46 -4 -59
-22 -71 -21 -15 -20 -16 32 -16 42 1 51 3 38 11 -13 7 -18 23 -18 59 0 67 7
81 36 74 18 -5 24 -2 24 10 0 22 -27 31 -45 16 -10 -9 -15 -9 -15 -1 0 14 -7
13 -45 -3z"/>
<path d="M2174 768 c-45 -21 -56 -84 -24 -135 17 -28 25 -33 59 -33 30 0 44 6
55 22 24 34 21 57 -4 30 -12 -12 -27 -22 -34 -22 -15 0 -50 37 -59 63 -6 15 1
17 53 17 66 0 77 13 40 50 -22 22 -53 25 -86 8z m56 -12 c0 -2 3 -11 6 -20 5
-12 -1 -16 -24 -16 -34 0 -52 18 -31 31 14 9 49 12 49 5z"/>
<path d="M2560 760 c-37 -37 -38 -103 -3 -142 16 -18 66 -24 98 -12 19 8 45
55 45 83 0 74 -91 120 -140 71z m85 -30 c8 -16 15 -40 15 -53 0 -33 -31 -70
-51 -62 -31 12 -50 86 -33 129 11 27 52 19 69 -14z"/>
<path d="M2730 769 c-23 -9 -23 -11 -7 -20 13 -8 17 -23 17 -69 0 -46 -4 -61
-17 -69 -14 -8 -7 -10 32 -10 39 0 46 2 33 10 -14 7 -18 23 -18 62 0 66 9 80
43 71 21 -5 27 -3 27 10 0 22 -28 32 -51 17 -12 -7 -19 -7 -19 -1 0 12 -7 12
-40 -1z"/>
<path d="M3360 760 c-56 -56 -26 -160 46 -160 25 0 38 7 54 31 26 36 20 49 -9
20 -28 -28 -45 -26 -70 5 -35 45 -28 54 39 54 68 0 78 14 34 49 -34 26 -68 27
-94 1z m60 -4 c0 -2 3 -11 6 -20 5 -12 -1 -16 -23 -16 -36 0 -46 9 -32 27 10
12 49 19 49 9z"/>
<path d="M3528 769 c-21 -12 -24 -49 -4 -49 7 0 16 9 19 21 4 13 12 20 24 17
30 -6 21 -37 -17 -56 -41 -20 -61 -62 -40 -86 14 -18 55 -21 65 -6 4 6 13 5
25 -3 15 -8 25 -9 37 -1 23 14 29 36 9 28 -13 -5 -16 3 -16 50 0 43 -5 61 -20
76 -22 22 -55 25 -82 9z m62 -99 c0 -28 -29 -57 -44 -43 -13 13 -5 52 12 62
27 16 32 13 32 -19z"/>
<path d="M3680 769 c-23 -9 -23 -11 -7 -20 13 -8 17 -23 17 -69 0 -46 -4 -61
-17 -69 -14 -8 -7 -10 32 -10 39 0 46 2 33 10 -14 7 -18 23 -18 62 0 57 11 84
29 72 18 -11 41 2 35 20 -7 18 -35 20 -52 3 -9 -9 -12 -9 -12 0 0 14 -6 14
-40 1z"/>
<path d="M3820 760 c-21 -21 -19 -40 4 -40 8 0 16 9 19 21 4 13 12 20 24 17
30 -6 21 -37 -16 -56 -43 -21 -56 -42 -47 -75 5 -22 12 -27 36 -27 16 0 32 5
35 10 5 8 11 7 20 0 17 -15 55 -4 55 16 0 8 -6 13 -12 12 -9 -2 -14 15 -16 57
-3 65 -17 85 -59 85 -13 0 -32 -9 -43 -20z m70 -90 c0 -28 -29 -57 -44 -43
-13 13 -5 52 12 62 27 16 32 13 32 -19z"/>
<path d="M4297 760 c-64 -50 -31 -160 48 -160 37 0 66 29 64 65 0 19 -1 19
-11 -2 -17 -36 -48 -40 -75 -9 -38 44 -31 56 32 56 61 0 71 14 35 50 -26 26
-60 25 -93 0z m63 -4 c0 -2 3 -11 6 -20 5 -12 -1 -16 -23 -16 -36 0 -46 9 -32
27 10 12 49 19 49 9z"/>
<path d="M4850 760 c-55 -55 -26 -160 44 -160 37 0 49 7 65 38 16 31 9 37 -14
12 -25 -27 -50 -25 -74 6 -35 45 -28 54 39 54 66 0 77 13 40 50 -26 26 -74 26
-100 0z m68 -22 c3 -14 -3 -18 -26 -18 -35 0 -45 9 -30 27 15 19 52 12 56 -9z"/>
<path d="M5020 760 c-56 -56 -26 -160 46 -160 35 0 74 31 74 59 0 11 -6 9 -23
-7 -31 -29 -51 -28 -76 4 -35 45 -28 54 39 54 66 0 77 13 40 50 -26 26 -74 26
-100 0z m68 -22 c3 -14 -3 -18 -26 -18 -35 0 -45 9 -30 27 15 19 52 12 56 -9z"/>
<path d="M5410 765 c-19 -11 -21 -14 -7 -15 14 0 17 -10 17 -65 0 -50 -4 -66
-17 -74 -14 -8 -5 -10 37 -10 42 0 51 2 38 10 -25 14 -26 124 -2 133 39 15 44
8 44 -57 0 -36 -5 -68 -12 -75 -9 -9 -2 -12 32 -12 34 0 41 3 32 12 -7 7 -12
37 -12 68 0 82 -39 125 -79 88 -11 -10 -14 -10 -18 0 -6 16 -22 15 -53 -3z"/>
<path d="M5744 768 c-45 -21 -56 -84 -24 -135 17 -28 25 -33 59 -33 30 0 44 6
55 22 24 34 21 57 -4 30 -12 -12 -27 -22 -34 -22 -15 0 -50 37 -59 63 -6 15 1
17 53 17 66 0 77 13 40 50 -22 22 -53 25 -86 8z m56 -12 c0 -2 3 -11 6 -20 5
-12 -1 -16 -24 -16 -32 0 -48 13 -37 30 6 9 55 15 55 6z"/>
<path d="M5880 768 c-21 -9 -22 -12 -7 -15 14 -4 17 -16 17 -68 0 -50 -4 -66
-17 -74 -14 -8 -5 -10 37 -10 42 0 51 2 38 10 -14 7 -18 23 -18 62 0 63 6 72
48 73 l32 1 0 -101 c0 -66 -4 -106 -12 -114 -9 -9 -1 -12 38 -12 43 1 47 2 32
14 -10 7 -18 25 -18 40 0 24 3 26 40 26 35 0 43 5 60 33 11 17 20 46 20 63 0
60 -63 107 -98 72 -10 -10 -14 -10 -21 0 -6 9 -15 10 -33 3 -18 -7 -29 -6 -37
2 -9 9 -16 8 -31 -1 -12 -7 -20 -8 -20 -2 0 13 -18 12 -50 -2z m240 -37 c22
-42 6 -121 -25 -121 -43 0 -66 107 -27 129 26 15 40 13 52 -8z"/>
<path d="M6200 768 c-21 -9 -22 -12 -7 -15 14 -4 17 -16 17 -68 0 -50 -4 -66
-17 -74 -14 -8 -5 -10 36 -11 47 0 52 2 37 13 -14 10 -17 25 -14 72 3 59 4 60
31 57 19 -2 27 2 27 13 0 21 -27 30 -45 15 -10 -9 -15 -9 -15 -1 0 14 -17 13
-50 -1z"/>
<path d="M6350 760 c-37 -37 -38 -103 -3 -142 24 -27 88 -24 107 4 24 34 21
57 -4 30 -27 -28 -45 -28 -75 3 -42 41 -34 55 35 55 66 0 77 13 40 50 -26 26
-74 26 -100 0z m69 -13 c14 -18 4 -27 -29 -27 -15 0 -30 3 -33 7 -10 10 13 33
33 33 10 0 23 -6 29 -13z"/>
<path d="M6628 769 c-21 -12 -24 -49 -4 -49 7 0 16 9 19 21 7 25 40 22 45 -4
2 -11 -6 -21 -25 -28 -57 -21 -81 -67 -51 -97 14 -14 54 -16 63 -2 4 6 13 5
25 -3 15 -8 25 -9 37 -1 23 14 29 36 9 28 -14 -5 -16 4 -16 60 0 54 -3 67 -19
76 -25 13 -61 12 -83 -1z m62 -99 c0 -28 -29 -57 -44 -43 -13 13 -5 52 12 62
27 16 32 13 32 -19z"/>
<path d="M6895 765 c-20 -9 -24 -14 -12 -14 11 -1 18 -10 19 -28 3 -61 -3 -99
-19 -110 -14 -11 -9 -13 32 -13 38 0 46 3 37 12 -7 7 -12 43 -12 90 0 43 -3
78 -7 78 -5 -1 -21 -7 -38 -15z"/>
<path d="M7023 768 c-45 -22 -55 -107 -16 -150 11 -12 30 -18 60 -18 38 0 46
4 63 33 53 87 -18 178 -107 135z m77 -34 c19 -49 6 -124 -21 -124 -5 0 -21 11
-34 25 -27 27 -35 91 -13 113 21 21 58 14 68 -14z"/>
<path d="M7180 768 c-21 -9 -22 -12 -7 -15 14 -4 17 -16 17 -68 0 -50 -4 -66
-17 -74 -14 -8 -5 -10 37 -10 42 0 51 2 38 10 -25 14 -26 124 -2 133 39 15 44
8 44 -57 0 -36 -5 -68 -12 -75 -9 -9 -2 -12 32 -12 34 0 41 3 32 12 -7 7 -12
37 -12 68 0 82 -39 125 -79 88 -11 -10 -14 -10 -18 0 -6 14 -19 15 -53 0z"/>
<path d="M7504 770 c-28 -11 -48 -62 -40 -102 10 -49 33 -68 83 -68 38 0 46 4
63 33 24 38 25 68 5 106 -20 40 -61 52 -111 31z m76 -29 c21 -40 7 -131 -21
-131 -5 0 -21 11 -34 25 -27 27 -35 91 -13 113 18 18 56 14 68 -7z"/>
<path d="M8193 768 c-49 -23 -51 -133 -3 -158 33 -18 78 -12 94 12 24 34 21
57 -4 30 -27 -29 -44 -28 -69 4 -34 44 -28 54 34 54 61 0 71 14 35 50 -22 22
-53 25 -87 8z m57 -12 c0 -2 3 -11 6 -20 5 -12 -1 -16 -23 -16 -36 0 -46 9
-32 27 10 12 49 19 49 9z"/>
<path d="M8315 770 c-3 -5 1 -10 9 -10 13 0 16 -12 16 -61 0 -33 5 -69 10 -80
12 -22 59 -26 78 -7 7 7 12 8 12 2 0 -6 34 -11 83 -12 59 -1 77 2 65 9 -13 7
-18 23 -18 59 0 67 7 81 36 74 18 -5 24 -2 24 10 0 22 -26 31 -44 17 -10 -9
-15 -9 -18 -1 -2 8 -12 8 -33 0 -26 -10 -28 -13 -12 -21 13 -8 17 -23 17 -63
0 -61 -15 -82 -43 -61 -17 12 -22 36 -26 138 -1 11 -9 17 -26 17 -14 0 -25 -4
-25 -10 0 -5 5 -10 10 -10 6 0 10 -27 10 -60 0 -47 -4 -61 -18 -69 -30 -16
-42 6 -42 75 0 56 -2 62 -22 68 -31 8 -36 8 -43 -4z"/>
<path d="M8669 751 c-37 -37 -38 -79 -3 -120 21 -25 33 -31 65 -31 34 0 42 5
59 33 34 55 23 109 -27 135 -35 19 -63 14 -94 -17z m91 -17 c23 -58 3 -132
-31 -119 -31 12 -50 86 -33 129 10 26 53 20 64 -10z"/>
<path d="M8983 768 c-45 -22 -55 -107 -16 -150 11 -12 30 -18 60 -18 38 0 46
4 63 33 53 87 -18 178 -107 135z m77 -27 c14 -27 13 -94 -3 -115 -8 -11 -19
-15 -30 -10 -38 14 -62 105 -35 132 18 18 56 14 68 -7z"/>
<path d="M9172 764 c-24 -16 -30 -62 -11 -81 8 -8 8 -17 -1 -32 -6 -12 -8 -31
-5 -41 4 -11 2 -20 -3 -20 -15 0 -23 -31 -12 -45 18 -21 76 -27 114 -11 75 31
64 86 -20 95 -56 7 -64 22 -17 32 45 9 63 26 63 60 0 19 5 29 15 29 35 0 11
18 -31 24 -64 8 -67 8 -92 -10z m72 -29 c9 -34 -3 -57 -28 -53 -16 2 -22 11
-24 37 -5 53 39 66 52 16z m20 -141 c38 -15 10 -44 -42 -44 -36 0 -56 14 -49
34 7 16 59 22 91 10z"/>
<path d="M9352 769 c-21 -8 -22 -10 -8 -25 21 -21 21 -107 0 -128 -14 -15 -12
-16 27 -16 34 0 40 3 31 12 -7 7 -12 43 -12 90 0 43 -3 78 -7 77 -5 0 -18 -4
-31 -10z"/>
<path d="M9473 768 c-45 -22 -55 -107 -16 -150 16 -18 68 -24 89 -10 14 9 34
47 34 63 0 6 -9 0 -21 -15 -11 -14 -29 -26 -39 -26 -25 0 -50 37 -50 75 0 53
43 75 68 35 15 -25 32 -26 32 -2 0 39 -48 54 -97 30z"/>
<path d="M9628 769 c-22 -12 -24 -49 -4 -49 8 0 18 9 21 21 8 24 48 23 53 -3
2 -11 -11 -23 -42 -37 -49 -21 -69 -58 -46 -86 14 -17 66 -20 75 -5 4 6 13 5
25 -2 14 -9 22 -9 34 1 19 16 21 32 4 29 -9 -2 -14 15 -16 57 -2 42 -8 64 -19
73 -20 14 -61 15 -85 1z m72 -99 c0 -34 -29 -57 -48 -38 -18 18 -14 35 10 52
32 22 38 20 38 -14z"/>
<path d="M10307 760 c-64 -50 -31 -160 48 -160 24 0 39 7 49 22 24 34 21 57
-4 30 -27 -29 -44 -28 -69 4 -34 44 -28 54 34 54 61 0 71 14 35 50 -26 26 -60
25 -93 0z m63 -4 c0 -2 3 -11 6 -20 5 -12 -1 -16 -23 -16 -36 0 -46 9 -32 27
10 12 49 19 49 9z"/>
<path d="M10465 760 c-23 -25 -13 -51 34 -82 38 -26 45 -37 32 -57 -12 -18
-48 -5 -56 20 -10 29 -25 23 -25 -11 0 -29 1 -30 50 -30 40 0 51 4 60 21 19
34 4 67 -41 89 -41 21 -47 42 -14 49 11 2 26 -7 36 -20 l19 -24 0 33 c0 31 -2
32 -38 32 -26 0 -45 -7 -57 -20z"/>
<path d="M11050 760 c-37 -37 -38 -103 -3 -142 24 -27 88 -24 107 4 24 34 21
57 -4 30 -27 -28 -45 -28 -75 3 -42 41 -34 55 35 55 66 0 77 13 40 50 -26 26
-74 26 -100 0z m69 -13 c14 -18 4 -27 -29 -27 -15 0 -30 3 -33 7 -10 10 13 33
33 33 10 0 23 -6 29 -13z"/>
<path d="M11212 768 c-7 -7 -12 -25 -12 -40 0 -22 8 -32 39 -47 44 -23 56 -44
36 -61 -21 -17 -52 -3 -64 28 -9 26 -9 26 -10 -10 l-1 -38 50 0 c40 0 51 4 60
21 19 34 4 69 -38 86 -20 8 -40 20 -44 26 -20 33 43 37 65 5 16 -23 16 -23 16
10 1 31 0 32 -42 32 -24 0 -48 -5 -55 -12z"/>
<path d="M4440 695 c0 -11 12 -15 50 -15 38 0 50 4 50 15 0 11 -12 15 -50 15
-38 0 -50 -4 -50 -15z"/>
</g>
</svg>
