<?xml version="1.0" standalone="no"?>
<!DOCTYPE svg PUBLIC "-//W3C//DTD SVG 20010904//EN"
 "http://www.w3.org/TR/2001/REC-SVG-20010904/DTD/svg10.dtd">
<svg version="1.0" xmlns="http://www.w3.org/2000/svg"
 width="480.000000pt" height="176.000000pt" viewBox="0 0 480.000000 176.000000"
 preserveAspectRatio="xMidYMid meet">

<g transform="translate(0.000000,176.000000) scale(0.100000,-0.100000)"
fill="#000000" stroke="none">
<path d="M2592 1348 c-19 -19 -15 -66 7 -78 44 -23 101 1 101 43 0 39 -78 65
-108 35z"/>
<path d="M508 1330 c-108 -19 -170 -81 -170 -169 0 -93 41 -135 167 -172 119
-35 155 -50 166 -70 31 -59 -30 -125 -108 -116 -53 6 -66 16 -100 79 -28 51
-53 65 -98 54 -89 -22 -22 -180 94 -221 91 -32 231 -15 303 36 56 40 83 138
57 206 -24 63 -71 94 -195 128 -116 33 -144 49 -144 85 0 38 36 63 90 63 46 0
60 -10 101 -70 25 -36 35 -43 63 -43 41 0 66 26 66 70 0 97 -145 166 -292 140z"/>
<path d="M1151 1328 c-50 -27 -50 -31 18 -305 35 -142 70 -270 77 -284 15 -31
32 -39 80 -39 60 0 75 26 129 227 27 100 52 180 56 178 3 -3 9 -19 13 -37 20
-101 92 -334 108 -350 28 -28 101 -25 126 7 22 28 142 493 142 550 0 32 -4 38
-35 50 -41 18 -80 7 -95 -27 -6 -13 -26 -92 -45 -177 -19 -85 -36 -156 -38
-158 -2 -2 -24 69 -48 158 -24 89 -51 172 -61 184 -38 48 -133 35 -156 -21 -6
-16 -28 -90 -47 -164 -48 -178 -45 -174 -61 -105 -8 33 -26 110 -40 172 -14
61 -31 118 -37 127 -17 22 -58 28 -86 14z"/>
<path d="M2905 1331 c-48 -20 -50 -31 -53 -279 -5 -322 1 -352 73 -352 28 0
43 8 67 33 1 1 4 78 7 171 l6 169 108 -167 c60 -91 120 -175 134 -186 30 -23
90 -26 119 -6 18 14 19 31 22 294 3 261 2 280 -16 302 -23 29 -73 31 -102 5
-18 -16 -20 -33 -22 -193 l-3 -176 -118 181 c-65 100 -123 186 -130 191 -18
15 -70 22 -92 13z"/>
<path d="M3972 1329 c-106 -18 -182 -74 -224 -164 -19 -42 -23 -67 -23 -150 0
-116 18 -167 80 -230 65 -64 113 -80 240 -80 121 1 197 22 249 70 25 23 26 29
26 123 0 136 0 136 -140 140 -123 4 -160 -8 -160 -52 0 -36 23 -48 101 -54
l70 -5 -3 -41 c-3 -34 -8 -43 -33 -56 -16 -8 -61 -16 -100 -18 -61 -3 -75 -1
-104 20 -100 68 -108 275 -16 357 71 62 156 51 224 -29 35 -41 48 -50 75 -50
40 0 66 26 66 66 0 70 -77 134 -184 153 -66 12 -70 12 -144 0z"/>
<path d="M2313 1068 c-19 -25 -21 -46 -6 -67 11 -17 23 -21 50 -19 75 6 76 90
2 96 -21 2 -40 -2 -46 -10z"/>
<path d="M2030 780 c-11 -11 -20 -27 -20 -35 0 -21 36 -55 58 -55 29 0 62 29
62 55 0 51 -62 73 -100 35z"/>
<path d="M312 408 c-13 -16 -5 -30 23 -46 19 -11 18 -11 -8 -12 -16 0 -26 -4
-22 -10 9 -15 52 -12 58 5 4 8 -5 23 -21 35 -26 21 -26 21 -4 17 15 -4 22 -1
19 6 -5 17 -32 20 -45 5z"/>
<path d="M457 407 c-3 -8 -2 -29 3 -48 8 -36 8 -36 14 34 1 6 6 15 11 19 6 5
3 8 -6 8 -9 0 -19 -6 -22 -13z"/>
<path d="M896 404 c-10 -25 -7 -74 4 -74 6 0 10 12 11 28 0 15 2 35 4 45 4 21
-11 23 -19 1z"/>
<path d="M1094 384 c4 -21 11 -43 16 -48 12 -13 30 2 31 27 1 20 2 19 12 -5 6
-16 15 -28 19 -28 12 0 29 50 25 74 -2 16 -6 13 -13 -14 l-10 -35 -12 33 c-12
35 -32 35 -32 1 0 -10 -4 -19 -10 -19 -5 0 -10 9 -10 19 0 11 -5 23 -11 27 -9
5 -10 -4 -5 -32z"/>
<path d="M1490 375 c0 -41 2 -45 24 -45 32 0 53 26 39 48 -6 10 -18 16 -27 16
-9 -1 -16 4 -16 12 0 8 -4 14 -10 14 -5 0 -10 -20 -10 -45z m50 -15 c0 -11 -7
-20 -15 -20 -8 0 -15 9 -15 20 0 11 7 20 15 20 8 0 15 -9 15 -20z"/>
<path d="M1570 375 c0 -25 5 -45 10 -45 6 0 10 20 10 45 0 25 -4 45 -10 45 -5
0 -10 -20 -10 -45z"/>
<path d="M1747 407 c-3 -8 -2 -29 3 -48 8 -36 8 -36 14 34 1 6 6 15 11 19 6 5
3 8 -6 8 -9 0 -19 -6 -22 -13z"/>
<path d="M2020 376 c0 -25 5 -46 10 -46 6 0 10 18 10 39 0 22 -4 43 -10 46 -6
4 -10 -12 -10 -39z"/>
<path d="M2976 404 c-10 -25 -7 -74 4 -74 6 0 10 12 11 28 0 15 2 35 4 45 4
21 -11 23 -19 1z"/>
<path d="M3057 414 c-10 -11 -9 -84 2 -84 5 0 11 12 13 28 l4 27 14 -27 c21
-44 40 -35 40 17 0 25 -4 45 -10 45 -5 0 -10 -12 -10 -27 l0 -28 -23 28 c-12
16 -26 25 -30 21z"/>
<path d="M3410 375 c0 -25 5 -45 10 -45 6 0 10 20 10 45 0 25 -4 45 -10 45 -5
0 -10 -20 -10 -45z"/>
<path d="M3780 375 c0 -25 5 -45 10 -45 6 0 10 20 10 45 0 25 -4 45 -10 45 -5
0 -10 -20 -10 -45z"/>
<path d="M3868 409 c-21 -12 -24 -49 -6 -67 7 -7 25 -12 40 -12 21 0 28 5 28
20 0 11 -7 23 -15 27 -22 8 -33 -6 -15 -17 12 -8 10 -10 -8 -10 -19 0 -23 5
-20 23 2 16 9 22 26 21 25 -1 29 11 6 20 -19 7 -15 8 -36 -5z"/>
<path d="M502 374 c4 -49 23 -55 22 -7 -1 20 -7 39 -13 41 -9 3 -11 -7 -9 -34z"/>
<path d="M2132 374 c4 -49 23 -55 22 -7 -1 20 -7 39 -13 41 -9 3 -11 -7 -9
-34z"/>
<path d="M2497 404 c-9 -9 9 -68 21 -70 7 -1 8 0 2 3 -13 6 -13 36 1 50 7 7 6
12 -4 16 -8 3 -17 4 -20 1z"/>
<path d="M2627 403 c-11 -18 6 -73 22 -73 13 0 13 2 2 9 -8 6 -12 19 -9 35 5
25 -6 45 -15 29z"/>
<path d="M4077 404 c-9 -9 9 -68 21 -70 7 -1 8 0 2 3 -13 6 -13 36 1 50 7 7 6
12 -4 16 -8 3 -17 4 -20 1z"/>
<path d="M392 391 c-8 -4 -12 -19 -10 -32 2 -18 9 -24 28 -24 28 0 39 27 20
50 -14 17 -20 18 -38 6z m33 -31 c0 -22 -29 -18 -33 3 -3 14 1 18 15 15 10 -2
18 -10 18 -18z"/>
<path d="M584 381 c-7 -23 -8 -23 -21 -6 -14 20 -16 13 -7 -22 8 -29 21 -29
30 -1 l6 21 13 -24 13 -24 11 28 c6 16 11 34 10 40 0 7 -5 -1 -11 -17 l-11
-29 -13 29 -13 29 -7 -24z"/>
<path d="M661 386 c-21 -25 -4 -56 30 -56 26 0 29 3 29 30 0 17 -4 30 -9 30
-5 0 -16 2 -24 5 -7 3 -19 -1 -26 -9z m37 -23 c-5 -25 -28 -28 -28 -4 0 12 6
21 16 21 9 0 14 -7 12 -17z"/>
<path d="M748 393 c-19 -5 -26 -63 -8 -63 6 0 10 10 10 23 0 13 5 28 12 35 7
7 10 11 8 11 -3 -1 -13 -3 -22 -6z"/>
<path d="M792 391 c-22 -13 -11 -56 16 -59 12 -2 22 1 22 7 0 6 -6 8 -14 5 -8
-3 -17 -1 -21 5 -4 7 4 11 20 11 23 0 24 2 15 20 -12 22 -18 24 -38 11z m25
-17 c-3 -3 -12 -4 -19 -1 -8 3 -5 6 6 6 11 1 17 -2 13 -5z"/>
<path d="M940 385 c-19 -23 -8 -50 20 -50 19 0 26 6 28 24 5 35 -26 53 -48 26z
m38 -22 c-2 -10 -10 -18 -18 -18 -8 0 -16 8 -18 18 -2 12 3 17 18 17 15 0 20
-5 18 -17z"/>
<path d="M1023 393 c-7 -3 -12 -19 -12 -36 2 -28 2 -29 6 -7 3 14 10 28 16 32
14 9 6 17 -10 11z"/>
<path d="M1232 391 c-22 -13 -11 -56 16 -59 12 -2 22 1 22 7 0 6 -6 8 -14 5
-8 -3 -17 -1 -21 5 -4 7 4 11 20 11 23 0 24 2 15 20 -12 22 -18 24 -38 11z
m25 -17 c-3 -3 -12 -4 -19 -1 -8 3 -5 6 6 6 11 1 17 -2 13 -5z"/>
<path d="M1299 389 c-6 -3 -9 -17 -7 -30 2 -18 9 -24 31 -25 24 -1 27 3 27 30
0 25 -4 32 -20 32 -12 0 -25 -3 -31 -7z m36 -29 c0 -22 -29 -18 -33 3 -3 14 1
18 15 15 10 -2 18 -10 18 -18z"/>
<path d="M1371 361 c2 -30 3 -32 6 -8 2 15 9 27 14 27 5 0 9 4 9 8 0 5 -7 9
-15 9 -11 0 -15 -10 -14 -36z"/>
<path d="M1420 385 c-19 -23 -8 -50 23 -53 24 -3 27 0 27 26 0 18 -6 32 -16
36 -21 8 -20 8 -34 -9z m38 -22 c-2 -10 -10 -18 -18 -18 -8 0 -16 8 -18 18 -2
12 3 17 18 17 15 0 20 -5 18 -17z"/>
<path d="M1622 391 c-22 -13 -11 -56 16 -59 12 -2 22 1 22 7 0 6 -6 8 -14 5
-8 -3 -17 -1 -21 5 -4 7 4 11 20 11 23 0 24 2 15 20 -12 22 -18 24 -38 11z
m25 -17 c-3 -3 -12 -4 -19 -1 -8 3 -5 6 6 6 11 1 17 -2 13 -5z"/>
<path d="M1791 361 c2 -30 3 -32 6 -8 2 15 9 27 14 27 5 0 9 4 9 8 0 5 -7 9
-15 9 -11 0 -15 -10 -14 -36z"/>
<path d="M1840 385 c-18 -22 -8 -50 20 -52 l25 -3 -25 12 -25 12 28 4 c29 4
33 12 15 30 -16 16 -23 15 -38 -3z m27 -11 c-3 -3 -12 -4 -19 -1 -8 3 -5 6 6
6 11 1 17 -2 13 -5z"/>
<path d="M1913 385 c-14 -11 -16 -18 -7 -32 6 -10 20 -18 30 -19 16 -1 16 0 2
3 -24 6 -23 23 2 23 23 0 27 25 6 33 -8 3 -22 -1 -33 -8z m34 -11 c-3 -3 -12
-4 -19 -1 -8 3 -5 6 6 6 11 1 17 -2 13 -5z"/>
<path d="M2073 393 c-7 -2 -12 -19 -12 -36 2 -31 2 -31 6 -4 2 15 10 27 18 27
8 0 16 -12 18 -27 4 -22 4 -20 3 6 -1 35 -10 44 -33 34z"/>
<path d="M2192 391 c-22 -13 -11 -56 16 -59 12 -2 22 1 22 7 0 6 -6 8 -14 5
-8 -3 -17 -1 -21 5 -4 7 4 11 20 11 23 0 24 2 15 20 -12 22 -18 24 -38 11z
m25 -17 c-3 -3 -12 -4 -19 -1 -8 3 -5 6 6 6 11 1 17 -2 13 -5z"/>
<path d="M2251 361 c2 -30 3 -32 6 -8 2 15 9 27 14 27 5 0 9 4 9 8 0 5 -7 9
-15 9 -11 0 -15 -10 -14 -36z"/>
<path d="M2301 346 c1 -28 3 -43 6 -34 2 9 14 18 26 20 16 2 23 11 25 31 2 15
0 28 -5 28 -53 9 -53 9 -52 -45z m49 20 c0 -8 -5 -18 -11 -22 -14 -8 -33 11
-25 25 10 16 36 13 36 -3z"/>
<path d="M2393 393 c-7 -3 -12 -19 -12 -36 2 -28 2 -29 6 -7 3 14 10 28 16 32
14 9 6 17 -10 11z"/>
<path d="M2430 385 c-18 -22 -8 -50 20 -52 l25 -3 -25 12 -25 12 28 4 c29 4
33 12 15 30 -16 16 -23 15 -38 -3z m27 -11 c-3 -3 -12 -4 -19 -1 -8 3 -5 6 6
6 11 1 17 -2 13 -5z"/>
<path d="M2550 385 c-19 -23 -8 -50 23 -53 24 -3 27 0 27 26 0 18 -6 32 -16
36 -21 8 -20 8 -34 -9z m38 -22 c-2 -10 -10 -18 -18 -18 -8 0 -16 8 -18 18 -2
12 3 17 18 17 15 0 20 -5 18 -17z"/>
<path d="M2714 386 c-20 -15 -14 -43 12 -53 20 -8 47 19 39 39 -9 23 -30 29
-51 14z m36 -26 c0 -11 -7 -20 -15 -20 -8 0 -15 9 -15 20 0 11 7 20 15 20 8 0
15 -9 15 -20z"/>
<path d="M2798 392 c-19 -4 -26 -62 -8 -62 6 0 10 12 10 26 0 32 22 27 31 -7
6 -22 7 -21 8 7 1 33 -11 43 -41 36z"/>
<path d="M2900 385 c-19 -23 -8 -50 20 -50 19 0 26 6 28 24 5 35 -26 53 -48
26z m38 -22 c-2 -10 -10 -18 -18 -18 -8 0 -16 8 -18 18 -2 12 3 17 18 17 15 0
20 -5 18 -17z"/>
<path d="M3153 385 c-14 -11 -16 -18 -7 -32 6 -10 20 -18 30 -19 16 -1 16 0 2
3 -24 6 -23 23 2 23 23 0 27 25 6 33 -8 3 -22 -1 -33 -8z m34 -11 c-3 -3 -12
-4 -19 -1 -8 3 -5 6 6 6 11 1 17 -2 13 -5z"/>
<path d="M3223 370 c2 -30 6 -35 30 -38 24 -3 27 0 27 27 0 35 -17 42 -22 11
-5 -32 -22 -29 -30 5 -6 29 -6 29 -5 -5z"/>
<path d="M3308 393 c-19 -5 -26 -63 -8 -63 6 0 10 10 10 23 0 13 5 28 12 35 7
7 10 11 8 11 -3 -1 -13 -3 -22 -6z"/>
<path d="M3352 391 c-8 -4 -12 -19 -10 -32 2 -18 9 -24 28 -24 28 0 39 27 20
50 -14 17 -20 18 -38 6z m33 -31 c0 -22 -29 -18 -33 3 -3 14 1 18 15 15 10 -2
18 -10 18 -18z"/>
<path d="M3462 391 c-8 -4 -12 -19 -10 -32 2 -18 9 -24 28 -24 28 0 39 27 20
50 -14 17 -20 18 -38 6z m33 -31 c0 -22 -29 -18 -33 3 -3 14 1 18 15 15 10 -2
18 -10 18 -18z"/>
<path d="M3530 385 c-18 -22 -8 -50 18 -49 12 0 22 -3 22 -8 0 -4 -10 -8 -22
-8 -15 0 -19 -3 -12 -10 6 -6 18 -8 27 -4 23 8 24 79 1 88 -21 8 -20 8 -34 -9z
m40 -18 c0 -19 -10 -27 -26 -20 -21 8 -17 33 6 33 11 0 20 -6 20 -13z"/>
<path d="M3644 386 c-10 -8 -15 -20 -11 -30 9 -22 35 -32 49 -18 8 8 5 9 -11
5 -16 -4 -21 -1 -21 15 0 14 8 22 23 24 18 3 19 4 5 10 -9 4 -24 1 -34 -6z"/>
<path d="M3710 385 c-19 -23 -8 -50 23 -53 24 -3 27 0 27 26 0 18 -6 32 -16
36 -21 8 -20 8 -34 -9z m38 -22 c-2 -10 -10 -18 -18 -18 -8 0 -16 8 -18 18 -2
12 3 17 18 17 15 0 20 -5 18 -17z"/>
<path d="M3953 385 c-14 -11 -16 -18 -7 -32 6 -10 20 -18 30 -19 16 -1 16 0 2
3 -24 6 -23 23 2 23 23 0 27 25 6 33 -8 3 -22 -1 -33 -8z m34 -11 c-3 -3 -12
-4 -19 -1 -8 3 -5 6 6 6 11 1 17 -2 13 -5z"/>
<path d="M4023 384 c-4 -10 1 -20 13 -27 17 -10 17 -11 -1 -18 -19 -7 -18 -8
3 -8 26 -1 30 24 5 38 -17 10 -17 10 0 11 10 0 15 5 12 10 -9 15 -25 12 -32
-6z"/>
<path d="M4168 373 c-4 -35 -28 -43 -28 -9 0 14 -4 26 -10 26 -11 0 -12 -6 -4
-37 4 -16 14 -23 30 -23 21 0 24 5 24 35 0 41 -7 46 -12 8z"/>
<path d="M4218 393 c-19 -5 -26 -63 -8 -63 6 0 10 10 10 23 0 13 5 28 12 35 7
7 10 11 8 11 -3 -1 -13 -3 -22 -6z"/>
<path d="M4253 385 c-14 -11 -16 -18 -7 -32 6 -10 20 -18 30 -19 16 -1 16 0 2
3 -24 6 -23 23 2 23 23 0 27 25 6 33 -8 3 -22 -1 -33 -8z m34 -11 c-3 -3 -12
-4 -19 -1 -8 3 -5 6 6 6 11 1 17 -2 13 -5z"/>
<path d="M4327 393 c-13 -12 -7 -33 8 -33 8 0 15 -5 15 -11 0 -6 -7 -9 -15 -5
-8 3 -15 1 -15 -4 0 -13 37 -13 45 -1 3 5 -5 17 -17 25 -19 14 -20 16 -5 16
10 0 15 5 12 10 -7 12 -19 13 -28 3z"/>
<path d="M2670 360 c0 -16 5 -30 10 -30 6 0 10 14 10 30 0 17 -4 30 -10 30 -5
0 -10 -13 -10 -30z"/>
<path d="M3600 360 c0 -16 5 -30 10 -30 6 0 10 14 10 30 0 17 -4 30 -10 30 -5
0 -10 -13 -10 -30z"/>
<path d="M1680 370 c0 -5 9 -10 20 -10 11 0 20 5 20 10 0 6 -9 10 -20 10 -11
0 -20 -4 -20 -10z"/>
</g>
</svg>
